HIERARCHY
ROOT Hips
{
	OFFSET 0.00 0.00 0.00
	CHANNELS 6 Xposition Yposition Zposition Xrotation Yrotation Zrotation
	JOINT Spine
	{
		OFFSET 0.00000 7.06766 0.00000
		CHANNELS 3 Xrotation Yrotation Zrotation
		JOINT Head
		{
			OFFSET 0.00000 15.03989 0.00000
			CHANNELS 3 Xrotation Yrotation Zrotation
			End Site
			{
				OFFSET 0.00000 4.52755 0.00000
			}
		}
		JOINT LeftShoulder
		{
			OFFSET 0.00000 10.53037 0.00000
			CHANNELS 3 Xrotation Yrotation Zrotation
			JOINT LeftArm
			{
				OFFSET 7.02886 0.00000 0.00000
				CHANNELS 3 Xrotation Yrotation Zrotation
				JOINT LeftForeArm
				{
					OFFSET 10.79770 0.00000 0.00000
					CHANNELS 3 Yrotation Zrotation Xrotation
					JOINT LeftHand
					{
						OFFSET 7.90744 0.00000 0.00000
						CHANNELS 3 Xrotation Yrotation Zrotation
						JOINT LeftHandThumb1
						{
							OFFSET 0.00000 0.00000 0.00000
							CHANNELS 3 Xrotation Zrotation Yrotation
							End Site
							{
								OFFSET 0.00000 0.00000 3.93700
							}
						}
						End Site
						{
							OFFSET 3.93700 0.00000 0.00000
						}
					}
				}
			}
		}
		JOINT RightShoulder
		{
			OFFSET 0.00000 10.53037 0.00000
			CHANNELS 3 Xrotation Yrotation Zrotation
			JOINT RightArm
			{
				OFFSET -7.02886 0.00000 0.00000
				CHANNELS 3 Xrotation Yrotation Zrotation
				JOINT RightForeArm
				{
					OFFSET -10.79770 0.00000 0.00000
					CHANNELS 3 Yrotation Zrotation Xrotation
					JOINT RightHand
					{
						OFFSET -7.90744 0.00000 0.00000
						CHANNELS 3 Xrotation Yrotation Zrotation
						JOINT RightHandThumb1
						{
							OFFSET 0.00000 0.00000 0.00000
							CHANNELS 3 Xrotation Zrotation Yrotation
							End Site
							{
								OFFSET 0.00000 0.00000 3.93700
							}
						}
						End Site
						{
							OFFSET -3.93700 0.00000 0.00000
						}
					}
				}
			}
		}
	}
	JOINT LeftUpLeg
	{
		OFFSET 4.01300 0.00000 0.00000
		CHANNELS 3 Xrotation Yrotation Zrotation
		JOINT LeftLeg
		{
			OFFSET 0.00000 -16.89976 0.00000
			CHANNELS 3 Xrotation Yrotation Zrotation
			JOINT LeftFoot
			{
				OFFSET 0.00000 -17.38918 0.00000
				CHANNELS 3 Xrotation Yrotation Zrotation
				JOINT LeftToeBase
				{
					OFFSET 0.00000 -1.27456 4.75673
					CHANNELS 3 Xrotation Yrotation Zrotation
					End Site
					{
						OFFSET 0.00000 0.00000 2.95275
					}
				}
			}
		}
	}
	JOINT RightUpLeg
	{
		OFFSET -4.01300 0.00000 0.00000
		CHANNELS 3 Xrotation Yrotation Zrotation
		JOINT RightLeg
		{
			OFFSET 0.00000 -16.89976 0.00000
			CHANNELS 3 Xrotation Yrotation Zrotation
			JOINT RightFoot
			{
				OFFSET 0.00000 -17.38918 0.00000
				CHANNELS 3 Xrotation Yrotation Zrotation
				JOINT RightToeBase
				{
					OFFSET 0.00000 -1.27456 4.75673
					CHANNELS 3 Xrotation Yrotation Zrotation
					End Site
					{
						OFFSET 0.00000 0.00000 2.95275
					}
				}
			}
		}
	}
}
MOTION
Frames: 11
Frame Time: 0.008333
 15.3710 35.7015 -18.0806 -177.5263 -16.4468 -179.3505 9.0093 -20.4140 -3.3790 12.5444 3.8272 8.8080 -28.5310 -5.4714 -4.6268 11.8744 -55.5949 -57.3248 -19.3083 -0.0000 8.9094 -0.0705 -0.4805 -8.3432 33.1476 -0.0000 26.2537 12.9564 -6.4635 12.4345 -10.2019 -6.6754 62.3708 25.3990 -0.0000 27.6025 0.1318 -1.6139 4.6697 32.8623 0.0000 -24.3270 7.2701 -3.6515 -6.4123 -14.4315 0.0000 0.0000 1.9864 21.0000 8.9773 -161.5916 -0.0000 0.0000 -60.5371 10.7394 23.9141 92.1217 0.0000 0.0000 17.1525 -38.9655 -8.1242 23.8075 0.0000 0.0000
 15.3597 35.7084 -18.0870 -177.3085 -16.8122 -179.3089 9.2013 -21.0426 -3.3324 12.6363 4.0712 8.8387 -28.6093 -5.7353 -4.7902 12.9383 -56.7045 -56.3764 -19.4520 -0.0000 9.0699 -0.0883 -0.5420 -9.2542 33.1476 -0.0000 26.2537 12.9407 -6.4612 12.4596 -10.1558 -6.6779 62.3903 25.5016 -0.0000 27.9464 0.1166 -1.4557 4.5811 32.8623 0.0000 -24.3270 7.4507 -3.7563 -6.3813 -14.3861 -0.0000 -0.0000 2.0295 20.7898 8.8569 -161.6663 0.0000 -0.0000 -61.5195 10.2665 24.4306 93.4753 0.0000 -0.0000 17.1788 -38.3564 -8.4584 24.3820 0.0000 0.0000
 15.3476 35.7143 -18.0960 -177.1329 -17.1664 -179.2769 9.3282 -21.6109 -3.2837 12.7200 4.2753 8.8645 -28.6369 -5.9853 -4.9352 14.1588 -57.9984 -55.2707 -19.5527 -0.0000 9.3080 -0.0945 -0.5308 -10.0996 33.1476 -0.0000 26.2537 13.0383 -6.5236 12.4895 -10.2159 -6.6606 62.4195 25.6794 -0.0000 28.0939 0.1443 -1.6805 4.9097 32.8623 0.0000 -24.3270 7.6085 -3.8618 -6.3462 -14.3725 -0.0000 0.0000 2.0069 20.5901 8.7934 -161.8899 0.0000 0.0000 -62.4913 9.8035 24.9341 94.7309 -0.0000 0.0000 17.4044 -37.7963 -8.4495 24.1758 -0.0000 -0.0000
 15.3338 35.7189 -18.1034 -176.9641 -17.5630 -179.2394 9.4551 -22.2366 -3.2263 12.7858 4.5086 8.8761 -28.7237 -6.2320 -5.0522 15.6178 -59.2368 -54.0336 -19.7783 -0.0000 9.6812 -0.1047 -0.5395 -10.9798 33.1476 -0.0000 26.2537 12.9964 -6.5338 12.4832 -10.1531 -6.7826 62.4539 25.9147 -0.0000 28.2299 0.1571 -1.7534 5.1206 32.8623 0.0000 -24.3270 7.7403 -3.9886 -6.3241 -14.3274 -0.0000 -0.0000 2.0197 20.3868 8.7099 -161.9606 0.0000 -0.0000 -63.4088 9.2774 25.3476 95.9323 -0.0000 -0.0000 17.5097 -37.3056 -8.5048 24.2431 -0.0000 -0.0000
 15.3230 35.7232 -18.1148 -176.7761 -17.8974 -179.1907 9.5908 -22.7674 -3.2056 12.8362 4.6899 8.9388 -28.7330 -6.4659 -5.1151 17.1522 -60.5402 -52.6696 -19.9987 -0.0000 10.1068 -0.1135 -0.5353 -11.9753 33.1476 -0.0000 26.2537 12.9269 -6.6194 12.5175 -10.0722 -6.8238 62.4730 26.1013 -0.0000 28.4404 0.1695 -1.8012 5.3774 32.8623 0.0000 -24.3270 7.9249 -4.1033 -6.2971 -14.3388 -0.0000 -0.0000 2.1157 20.2078 8.5735 -161.9986 -0.0000 0.0000 -64.2717 8.7770 25.8064 97.0412 0.0000 -0.0000 17.6038 -36.8989 -8.5891 24.6015 0.0000 -0.0000
 15.3129 35.7275 -18.1296 -176.5826 -18.2813 -179.1523 9.7374 -23.3082 -3.1491 12.8854 4.8498 8.9598 -28.7795 -6.7409 -5.1603 18.9927 -61.8467 -51.1032 -20.2625 -0.0000 10.4633 -0.1384 -0.6031 -12.9254 33.1476 -0.0000 26.2537 12.9184 -6.6737 12.5498 -10.0048 -6.9131 62.4924 26.3371 -0.0000 28.6545 0.1729 -1.7921 5.5119 32.8623 0.0000 -24.3270 8.1148 -4.3143 -6.2430 -14.3560 0.0000 0.0000 2.1181 20.0482 8.5582 -162.1694 0.0000 -0.0000 -65.0527 8.2481 26.2309 98.0855 0.0000 -0.0000 17.7344 -36.5636 -8.6813 24.7105 0.0000 0.0000
 15.3035 35.7307 -18.1406 -176.3978 -18.6250 -179.1077 9.8774 -23.7994 -3.1103 12.9090 4.9868 8.9939 -28.5856 -6.9085 -5.1553 21.3540 -63.4914 -48.7733 -20.5706 -0.0000 10.1700 -0.1929 -0.7840 -13.8263 33.1476 -0.0000 26.2537 12.9654 -6.7765 12.5880 -10.0196 -6.8522 62.5214 26.4598 -0.0000 28.9497 0.1687 -1.7232 5.5926 32.8623 0.0000 -24.3270 8.2824 -4.5438 -6.2024 -14.3651 -0.0000 -0.0000 2.1615 19.9866 8.5094 -162.2641 -0.0000 0.0000 -65.8174 7.7563 26.6764 99.0414 -0.0000 0.0000 17.8777 -36.3104 -8.7640 24.6664 -0.0000 -0.0000
 15.2992 35.7348 -18.1489 -176.2778 -19.0114 -179.0955 9.9467 -24.3086 -3.0653 12.9598 5.1225 9.0664 -28.4000 -7.1246 -5.1073 24.0883 -65.0441 -46.1417 -20.8850 -0.0000 9.9812 -0.2168 -0.8337 -14.5805 33.1476 -0.0000 26.2537 12.9629 -6.8350 12.6595 -9.9781 -6.9738 62.5138 26.7436 -0.0000 29.1873 0.1797 -1.7743 5.7855 32.8623 0.0000 -24.3270 8.3610 -4.8796 -6.1276 -14.3488 -0.0000 -0.0000 2.1674 19.9552 8.5076 -162.3473 0.0000 -0.0000 -66.5646 7.1989 27.0311 99.9186 -0.0000 -0.0000 17.9883 -36.1027 -8.9097 24.5862 0.0000 0.0000
 15.2881 35.7368 -18.1662 -176.0721 -19.3650 -179.0115 10.0753 -24.7624 -3.0713 12.9822 5.2437 9.1487 -28.3584 -7.4112 -5.0157 26.4436 -66.2025 -44.0719 -21.1511 -0.0000 10.1524 -0.2929 -1.0556 -15.5080 33.1476 -0.0000 26.2537 13.0323 -6.9218 12.7333 -9.9976 -6.9682 62.4972 26.9573 -0.0000 29.3792 0.1892 -1.8029 5.9911 32.8623 0.0000 -24.3270 8.5523 -5.2162 -6.1037 -14.3702 -0.0000 -0.0000 2.2143 19.9679 8.4536 -162.4564 -0.0000 0.0000 -67.2082 6.7194 27.4138 100.7774 0.0000 -0.0000 18.0968 -35.9632 -9.0409 24.6009 0.0000 0.0000
 15.2772 35.7393 -18.1820 -175.8712 -19.6875 -178.9505 10.2248 -25.1768 -3.0380 12.9749 5.3529 9.2141 -28.3547 -7.6586 -4.9224 29.2181 -67.3472 -41.6541 -21.5089 -0.0000 10.4281 -0.3399 -1.1648 -16.2684 33.1476 -0.0000 26.2537 13.0466 -6.9864 12.8126 -9.9903 -7.0968 62.4581 27.2630 -0.0000 29.6235 0.1961 -1.7978 6.2268 32.8623 0.0000 -24.3270 8.7305 -5.5660 -6.0588 -14.3671 -0.0000 0.0000 2.2761 19.9718 8.4206 -162.4426 -0.0000 -0.0000 -67.7969 6.2190 27.7842 101.5482 0.0000 0.0000 18.1438 -35.8864 -9.1421 24.9789 -0.0000 -0.0000
 15.2694 35.7417 -18.1984 -175.6848 -19.9844 -178.9138 10.3610 -25.5416 -3.0049 12.9767 5.4189 9.3272 -28.3259 -7.9145 -4.8179 32.1414 -68.3788 -39.0640 -21.9461 -0.0000 10.4686 -0.2736 -0.8931 -17.0358 33.1476 -0.0000 26.2537 12.8528 -7.0209 12.9092 -9.7296 -7.2321 62.3377 27.5915 -0.0000 29.8199 0.2038 -1.7922 6.4897 32.8623 0.0000 -24.3270 8.9039 -5.9333 -5.9845 -14.3835 -0.0000 -0.0000 2.2986 20.0295 8.4453 -162.4267 0.0000 0.0000 -68.3521 5.7097 28.1731 102.2444 0.0000 0.0000 18.2268 -35.8135 -9.2054 24.8105 -0.0000 -0.0000
